<svg xmlns="http://www.w3.org/2000/svg" viewBox="0 0 321.99539 314.10749"><g style="isolation:isolate"><g id="Layer_2" data-name="Layer 2"><g id="Слой_2" data-name="Слой 2"><g opacity="0.35"><path d="M248.42137,41.54939,240.428,37.45546V16.15264a4.1623,4.1623,0,1,0-1.218,0V37.8274a.609.609,0,0,0,.33032.542l7.99381,4.09479V56.10255a.60925.60925,0,1,0,1.2185,0V42.09137A.60929.60929,0,0,0,248.42137,41.54939Z" fill="#679ff5"/><path d="M263.04237,40.128,255.0476,36.0342V28.94446a4.16255,4.16255,0,1,0-1.21753,0V36.407a.60929.60929,0,0,0,.33127.542l7.99381,4.09394V54.68225a.609.609,0,0,0,1.218,0V40.671A.60932.60932,0,0,0,263.04237,40.128Z" fill="#679ff5"/><path d="M291.76248,56.71189a.60887.60887,0,0,0,.60829-.60934V42.46417l7.99381-4.09479a.60768.60768,0,0,0,.33175-.542V16.15264a4.163,4.163,0,1,0-1.21945,0V37.45546L291.484,41.54939a.61065.61065,0,0,0-.33271.542V56.10255A.6104.6104,0,0,0,291.76248,56.71189Z" fill="#679ff5"/><path d="M310.27637,41.07554V62.142H298.9083a.60925.60925,0,0,0,0,1.21849h11.97693a.60853.60853,0,0,0,.60925-.60829V41.07554a4.16235,4.16235,0,1,0-1.21811,0Z" fill="#679ff5"/><path d="M228.41044,41.07554V62.75222a.60987.60987,0,0,0,.60973.60829h11.97655a.60925.60925,0,0,0,0-1.21849H229.63V41.07554a4.163,4.163,0,1,0-1.21955,0Z" fill="#679ff5"/><path d="M285.46609,20.66894a4.16,4.16,0,0,0-.60877,8.27552V36.0342l-7.993,4.09384a.61118.61118,0,0,0-.33261.54293V54.68225a.60973.60973,0,0,0,1.21945,0V41.04292l7.99285-4.09394a.61018.61018,0,0,0,.33128-.542V28.94446a4.16,4.16,0,0,0-.60925-8.27552Z" fill="#679ff5"/><path d="M248.14388,94.521a.60834.60834,0,0,0-.60973.60829v13.63933l-7.99381,4.09383a.61025.61025,0,0,0-.33032.542v21.67573a4.16183,4.16183,0,1,0,1.218,0V113.7773l7.99333-4.09479a.60842.60842,0,0,0,.33128-.542V95.12926A.60783.60783,0,0,0,248.14388,94.521Z" fill="#679ff5"/><path d="M262.76392,95.94127a.609.609,0,0,0-.60877.60934V110.189l-7.99381,4.09479a.60724.60724,0,0,0-.33127.542v7.46159a4.163,4.163,0,1,0,1.21753,0v-7.08879l7.99477-4.09479a.60789.60789,0,0,0,.3308-.542V96.55061A.60938.60938,0,0,0,262.76392,95.94127Z" fill="#679ff5"/><path d="M300.69633,135.08013V113.4044a.60889.60889,0,0,0-.33175-.542l-7.99381-4.09383V95.12926a.60973.60973,0,0,0-1.21945,0v14.01127a.60977.60977,0,0,0,.33271.542l7.99285,4.09479v21.30283a4.16255,4.16255,0,1,0,1.21945,0Z" fill="#679ff5"/><path d="M311.49448,110.15626V88.48064a.60883.60883,0,0,0-.60925-.60935H298.9083a.6093.6093,0,0,0,0,1.21859h11.36807v21.06638a4.16188,4.16188,0,1,0,1.21811,0Z" fill="#679ff5"/><path d="M229.63,110.15626V89.08988h11.36673a.6093.6093,0,0,0,0-1.21859H229.02017a.61016.61016,0,0,0-.60973.60935v21.67562a4.1625,4.1625,0,1,0,1.21955,0Z" fill="#679ff5"/><path d="M286.07534,122.28735v-7.46159a.60812.60812,0,0,0-.33128-.542l-7.99285-4.09479V96.55061a.60973.60973,0,0,0-1.21945,0v14.01118a.60976.60976,0,0,0,.33261.542l7.993,4.09479v7.08879a4.16182,4.16182,0,1,0,1.218,0Z" fill="#679ff5"/><path d="M285.89037,47.17109a32.60585,32.60585,0,1,0-29.53959,58.07837,32.60578,32.60578,0,1,0,29.53959-58.07837Z" fill="#538de4"/><path d="M302.56063,75.6159A32.60745,32.60745,0,1,1,269.95318,43.009,32.60815,32.60815,0,0,1,302.56063,75.6159Z" fill="#679ff5"/><path d="M294.05278,75.6159a24.10056,24.10056,0,1,1-24.0996-24.10056A24.09979,24.09979,0,0,1,294.05278,75.6159Z" fill="#538de4"/><path d="M271.19742,52.704a24.00666,24.00666,0,0,1,16.00025,6.0833A24.09624,24.09624,0,1,0,253.952,93.63317,24.09573,24.09573,0,0,1,271.19742,52.704Z" fill="#538de4"/><path d="M280.81946,81.35166a5.78789,5.78789,0,0,0-4.58577-5.99641v-.157c2.0773-.78493,3.33082-3.251,3.33082-5.52639,0-4.00044-2.74492-5.69834-6.63322-6.188V58.663h-2.189v4.67227c-.19386-.00459-.38734-.01119-.58542-.01119h-3.286V58.663h-2.188v4.66108h-3.26316V88.87583h3.26316v3.693h2.188v-3.693h3.87146v3.693h2.189V88.76464C277.46529,88.246,280.81946,85.90614,280.81946,81.35166ZM267.18109,67.79175h2.74357c2.70244,0,3.9948.74378,3.9948,2.74166,0,1.84459-1.21246,3.0183-4.03642,3.0183h-2.702Zm3.251,16.61648h-3.251V77.825h3.251c3.17523,0,4.74184.9,4.74184,3.13417C275.17394,83.31116,273.56953,84.40823,270.4321,84.40823Z" fill="#fff"/></g><path d="M190.54591,244.09913a8.874,8.874,0,0,0-8.87286-8.87506H144.96928a8.87425,8.87425,0,0,0-8.874,8.87506v53.37741H96.07258a2.99538,2.99538,0,0,0-2.9944,2.99477v1.42093a2.994,2.994,0,0,0,2.9944,2.99477H187.554a2.99256,2.99256,0,0,0,2.99191-2.99477Z" fill="#6e9ee4"/><path d="M184.08228,235.56466a8.84238,8.84238,0,0,1,.08,1.13819v57.7953a2.99428,2.99428,0,0,1-2.99337,2.99477H95.92656a2.987,2.987,0,0,0-2.84838,2.97839v1.42093a2.994,2.994,0,0,0,2.9944,2.99477H187.554a2.99256,2.99256,0,0,0,2.99191-2.99477V244.09913A8.87077,8.87077,0,0,0,184.08228,235.56466Z" fill="#5a80c1"/><path d="M38.03627,88.52189H281.19012a4.42434,4.42434,0,0,1,3.099,1.26168c.82545.80549,4.87562,5.31551,5.6882,6.34518a4.41382,4.41382,0,0,1,.95253,2.74623V257.91971a4.43827,4.43827,0,0,1-4.43857,4.4372H43.33745a4.44931,4.44931,0,0,1-1.13175-.14639c-1.90265-.50123-7.40374-6.76569-8.1342-8.21456a4.40992,4.40992,0,0,1-.47272-1.99361V92.959A4.43736,4.43736,0,0,1,38.03627,88.52189Z" fill="#5a80c1"/><path d="M38.03663,88.52189H281.19158A4.43713,4.43713,0,0,1,285.6287,92.959v159.0448a4.43713,4.43713,0,0,1-4.43713,4.43713H38.03809a4.43858,4.43858,0,0,1-4.43858-4.43858V92.959a4.43713,4.43713,0,0,1,4.43713-4.43713Z" fill="#efefef"/><path d="M48.24517,98.40088H270.97865a4.43756,4.43756,0,0,1,4.43756,4.43756V227.13089a4.43786,4.43786,0,0,1-4.43786,4.43786H48.24729a4.43786,4.43786,0,0,1-4.43786-4.43786V102.83661A4.43574,4.43574,0,0,1,48.24517,98.40088Z" fill="#cbdefb"/><path d="M121.84158,117.19133a2.54077,2.54077,0,0,1-2.54062,2.54H56.63289a2.54062,2.54062,0,0,1-2.541-2.54h0a2.54076,2.54076,0,0,1,2.541-2.54061H119.301a2.54091,2.54091,0,0,1,2.54062,2.54061Z" fill="#1a2b4d"/><path d="M98.49255,117.19133a2.54047,2.54047,0,0,1-2.54026,2.54H56.63289a2.54062,2.54062,0,0,1-2.541-2.54h0a2.54076,2.54076,0,0,1,2.541-2.54061h39.3194a2.54061,2.54061,0,0,1,2.54026,2.54061Z" fill="#366265"/><path d="M139.73164,117.19133a2.54015,2.54015,0,0,1-2.53988,2.54H126.64043a2.54049,2.54049,0,0,1-2.54062-2.54h0a2.54063,2.54063,0,0,1,2.54062-2.54061h10.55133a2.54029,2.54029,0,0,1,2.53988,2.54061Z" fill="#fff" style="mix-blend-mode:screen"/><path d="M121.84158,129.66454a2.54149,2.54149,0,0,1-2.54062,2.54135H56.63289a2.54134,2.54134,0,0,1-2.541-2.54135h0a2.54061,2.54061,0,0,1,2.541-2.53989H119.301a2.54076,2.54076,0,0,1,2.54062,2.53989Z" fill="#1a2b4d"/><path d="M91.59363,129.66454a2.5408,2.5408,0,0,1-2.54062,2.54135H56.63289a2.54134,2.54134,0,0,1-2.541-2.54135h0a2.54061,2.54061,0,0,1,2.541-2.53989H89.053a2.54006,2.54006,0,0,1,2.54062,2.53989Z" fill="#5a80c1"/><path d="M139.73164,129.66454a2.54087,2.54087,0,0,1-2.53988,2.54135H126.64043a2.54121,2.54121,0,0,1-2.54062-2.54135h0a2.54048,2.54048,0,0,1,2.54062-2.53989h10.55133a2.54013,2.54013,0,0,1,2.53988,2.53989Z" fill="#fff" style="mix-blend-mode:screen"/><path d="M121.84158,142.13847a2.54087,2.54087,0,0,1-2.54062,2.54062H56.63289a2.54072,2.54072,0,0,1-2.541-2.54062h0a2.54119,2.54119,0,0,1,2.541-2.54062H119.301a2.54134,2.54134,0,0,1,2.54062,2.54062Z" fill="#1a2b4d"/><path d="M109.01528,142.13847a2.54079,2.54079,0,0,1-2.54025,2.54062H56.63289a2.54072,2.54072,0,0,1-2.541-2.54062h0a2.54119,2.54119,0,0,1,2.541-2.54062H106.475a2.54127,2.54127,0,0,1,2.54025,2.54062Z" fill="#eca841"/><path d="M139.73164,142.13847a2.54025,2.54025,0,0,1-2.53988,2.54062H126.64043a2.54059,2.54059,0,0,1-2.54062-2.54062h0a2.54106,2.54106,0,0,1,2.54062-2.54062h10.55133a2.54072,2.54072,0,0,1,2.53988,2.54062Z" fill="#fff" style="mix-blend-mode:screen"/><path d="M121.84158,154.61241A2.54092,2.54092,0,0,1,119.301,157.153H56.63289a2.54077,2.54077,0,0,1-2.541-2.54062h0a2.54119,2.54119,0,0,1,2.541-2.54062H119.301a2.54134,2.54134,0,0,1,2.54062,2.54062Z" fill="#1a2b4d"/><path d="M82.82394,154.61241a2.54045,2.54045,0,0,1-2.54062,2.54062H56.63289a2.54077,2.54077,0,0,1-2.541-2.54062h0a2.54119,2.54119,0,0,1,2.541-2.54062H80.28332a2.54087,2.54087,0,0,1,2.54062,2.54062Z" fill="#366265"/><path d="M139.73164,154.61241a2.5403,2.5403,0,0,1-2.53988,2.54062H126.64043a2.54064,2.54064,0,0,1-2.54062-2.54062h0a2.54106,2.54106,0,0,1,2.54062-2.54062h10.55133a2.54071,2.54071,0,0,1,2.53988,2.54062Z" fill="#fff" style="mix-blend-mode:screen"/><path d="M231.97424,186.74225c-5.2383.96108-9.31706-1.60235-14.57963.86544-5.49971,2.81124-8.72158,8.2131-11.70487,13.27007-2.13794,3.09757-4.06589,7.35913-7.74045,8.63441-2.85766.82333-5.74246-.15209-8.46734-.25489-4.42287.14353-9.11708,3.7324-12.6103,7.539V217.876a4.4374,4.4374,0,0,0,4.4358,4.43785h74.84063V172.17116C244.90591,172.10755,240.35735,184.90855,231.97424,186.74225Z" fill="#fff" style="mix-blend-mode:screen"/><path d="M256.14808,222.7573H181.30745a4.88783,4.88783,0,0,1-4.87993-4.88132V165.74313a.44343.44343,0,1,1,.88686,0V217.876a3.99749,3.99749,0,0,0,3.99307,3.993h74.84063a.44417.44417,0,0,1,0,.88833Z" fill="#97b4f8"/><path d="M236.62422,197.17037c-5.32407,0-8.87432-3.25471-14.494-1.77513-5.91671,1.77513-10.05682,6.50861-13.9027,10.94434-2.66346,2.66346-5.32546,6.50868-9.17,7.09993-2.959.29416-5.62108-1.18388-8.28308-1.77513-4.5914-.68908-9.84257,2.67487-13.90276,6.15018v.06142a4.4374,4.4374,0,0,0,4.4358,4.43785h74.84063V185.92821C248.75325,185.92821,245.20292,196.874,236.62422,197.17037Z" fill="#71a29e"/><g opacity="0.5" style="mix-blend-mode:multiply"><path d="M256.14808,222.7573H181.30745a4.88783,4.88783,0,0,1-4.87993-4.88132V165.74313a.44343.44343,0,1,1,.88686,0V217.876a3.99749,3.99749,0,0,0,3.99307,3.993h74.84063a.44417.44417,0,0,1,0,.88833Z" fill="#1a2b4d"/></g><g opacity="0.6" style="mix-blend-mode:multiply"><path d="M159.51,174.55969H55.24975a.54664.54664,0,0,1,0-1.09328H159.51a.54664.54664,0,1,1,0,1.09328Z" fill="#1a2b4d"/><path d="M159.51,180.57562H55.24975a.54624.54624,0,0,1,0-1.09248H159.51a.54624.54624,0,1,1,0,1.09248Z" fill="#1a2b4d"/><path d="M159.51,186.59228H55.24975a.547.547,0,0,1,0-1.09395H159.51a.547.547,0,1,1,0,1.09395Z" fill="#1a2b4d"/><path d="M159.51,192.60967H55.24975a.54624.54624,0,0,1,0-1.09248H159.51a.54624.54624,0,1,1,0,1.09248Z" fill="#1a2b4d"/><path d="M159.51,198.62633H55.24975a.54661.54661,0,0,1,0-1.09322H159.51a.54661.54661,0,1,1,0,1.09322Z" fill="#1a2b4d"/><path d="M159.51,204.643H55.24975a.5473.5473,0,0,1,0-1.0946H159.51a.5473.5473,0,1,1,0,1.0946Z" fill="#1a2b4d"/><path d="M159.51,210.65825H55.24975a.547.547,0,0,1,0-1.09394H159.51a.547.547,0,1,1,0,1.09394Z" fill="#1a2b4d"/><path d="M159.51,216.67418H55.24975a.54661.54661,0,0,1,0-1.09321H159.51a.54661.54661,0,1,1,0,1.09321Z" fill="#1a2b4d"/><path d="M159.51,222.69084H55.24975a.54767.54767,0,0,1,0-1.09534H159.51a.54767.54767,0,1,1,0,1.09534Z" fill="#1a2b4d"/></g><rect x="55.24975" y="213.43593" width="11.47497" height="9.25491" fill="#97b4f8"/><rect x="68.4513" y="194.59472" width="11.47497" height="28.09611" fill="#97b4f8"/><rect x="81.65212" y="202.05169" width="11.47636" height="20.63914" fill="#97b4f8"/><rect x="94.85331" y="184.96281" width="11.47673" height="37.72803" fill="#97b4f8"/><rect x="121.2564" y="194.59472" width="11.47527" height="28.09611" fill="#97b4f8"/><rect x="134.45722" y="202.05169" width="11.47636" height="20.63914" fill="#97b4f8"/><rect x="147.65841" y="184.96281" width="11.47746" height="37.72803" fill="#97b4f8"/><rect x="108.05412" y="172.56528" width="11.47709" height="50.12556" fill="#97b4f8"/><rect x="55.24975" y="213.43593" width="11.47497" height="9.25491" fill="#5a80c1"/><rect x="68.4513" y="194.59472" width="11.47497" height="28.09611" fill="#5a80c1"/><rect x="81.65212" y="202.05169" width="11.47636" height="20.63914" fill="#71a29e"/><rect x="94.85331" y="184.96281" width="11.47673" height="37.72803" fill="#5a80c1"/><rect x="121.2564" y="194.59472" width="11.47527" height="28.09611" fill="#5a80c1"/><rect x="134.45722" y="202.05169" width="11.47636" height="20.63914" fill="#71a29e"/><rect x="147.65841" y="184.96281" width="11.47746" height="37.72803" fill="#5a80c1"/><rect x="108.05412" y="172.56528" width="11.47709" height="50.12556" fill="#71a29e"/><path d="M179.9921,117.24705a15.52969,15.52969,0,1,0,4.343,21.52821A15.52808,15.52808,0,0,0,179.9921,117.24705Zm-14.11693,21.25189a9.98414,9.98414,0,1,1,13.83988-2.792A9.98368,9.98368,0,0,1,165.87517,138.49894Z" fill="#1a2b4d"/><path d="M209.44,114.65218a15.53009,15.53009,0,1,0,15.53078,15.53005A15.52915,15.52915,0,0,0,209.44,114.65218Zm0,25.514a9.984,9.984,0,1,1,9.984-9.984A9.98489,9.98489,0,0,1,209.44,140.16621Z" fill="#eca841"/><path d="M247.48221,114.65218a15.53009,15.53009,0,1,0,15.52939,15.53005A15.53033,15.53033,0,0,0,247.48221,114.65218Zm0,25.514a9.984,9.984,0,1,1,9.984-9.984A9.984,9.984,0,0,1,247.48221,140.16621Z" fill="#1a2b4d"/><path d="M165.87517,138.49894a9.97912,9.97912,0,0,1,7.78469-18.03287l-.2157-5.66392a15.52119,15.52119,0,1,0,1.15536,30.57034l-.21278-5.66751A9.966,9.966,0,0,1,165.87517,138.49894Z" fill="#366265"/><path d="M219.424,130.18223a9.984,9.984,0,1,1-13.223-9.43625l-1.79948-5.24123a15.61285,15.61285,0,1,0,20.38213,12.39183l-5.48113.81543A9.77614,9.77614,0,0,1,219.424,130.18223Z" fill="#5a80c1"/><path d="M247.48221,140.16621a9.984,9.984,0,1,1,3.4903-19.32744l1.75662-5.25834a15.534,15.534,0,1,0-1.451,29.64494l-1.45669-5.34688A9.95667,9.95667,0,0,1,247.48221,140.16621Z" fill="#71a29e"/><path d="M35.67165,44.54936,29.56359,41.421V25.14257a3.1806,3.1806,0,1,0-.93074,0V41.70522a.46539.46539,0,0,0,.25241.41415l6.10842,3.129V55.67006a.46556.46556,0,1,0,.93111,0V44.96351A.46559.46559,0,0,0,35.67165,44.54936Z" fill="#679ff5"/><path d="M46.8442,43.46324,40.73505,40.335V34.91737a3.18078,3.18078,0,1,0-.93038,0v5.70246a.4656.4656,0,0,0,.25314.41415l6.10842,3.12835V54.58475a.46537.46537,0,0,0,.93074,0V43.87812A.4656.4656,0,0,0,46.8442,43.46324Z" fill="#679ff5"/><path d="M68.79051,56.13569a.46527.46527,0,0,0,.46482-.46563V45.24838l6.10842-3.129a.46436.46436,0,0,0,.25351-.41415V25.14257a3.18115,3.18115,0,1,0-.93184,0V41.421l-6.10769,3.12836a.46659.46659,0,0,0-.25424.41415V55.67006A.46643.46643,0,0,0,68.79051,56.13569Z" fill="#679ff5"/><path d="M82.93779,44.18727V60.28509H74.25094a.46556.46556,0,0,0,0,.93111H83.403a.465.465,0,0,0,.46555-.46483V44.18727a3.18064,3.18064,0,1,0-.93081,0Z" fill="#679ff5"/><path d="M20.38041,44.18727v16.5641a.466.466,0,0,0,.46592.46483h9.15181a.46556.46556,0,0,0,0-.93111H21.31232V44.18727a3.18111,3.18111,0,1,0-.93191,0Z" fill="#679ff5"/><path d="M63.97916,28.59368a3.17884,3.17884,0,0,0-.46519,6.32369V40.335L57.4062,43.46324a.467.467,0,0,0-.25416.41488V54.58475a.46592.46592,0,0,0,.93183,0V44.16233l6.1077-3.12835a.46629.46629,0,0,0,.25314-.41415V34.91737a3.17887,3.17887,0,0,0-.46555-6.32369Z" fill="#679ff5"/><path d="M35.4596,85.02728a.46486.46486,0,0,0-.46592.46482V95.91451l-6.10842,3.12828a.46631.46631,0,0,0-.25241.41415v16.56338a3.18024,3.18024,0,1,0,.93074,0V99.74189l6.10806-3.129a.46493.46493,0,0,0,.25314-.41415V85.4921A.46447.46447,0,0,0,35.4596,85.02728Z" fill="#679ff5"/><path d="M46.63142,86.11259a.46534.46534,0,0,0-.46519.46563V96.9999l-6.10842,3.129a.464.464,0,0,0-.25314.41416v5.70173a3.18115,3.18115,0,1,0,.93038,0v-5.41686l6.10915-3.129a.46452.46452,0,0,0,.25277-.41415V86.57822A.46565.46565,0,0,0,46.63142,86.11259Z" fill="#679ff5"/><path d="M75.61726,116.02032V99.45694a.46528.46528,0,0,0-.25351-.41415l-6.10842-3.12828V85.4921a.46592.46592,0,0,0-.93184,0V96.19873a.46593.46593,0,0,0,.25424.41415l6.10769,3.129v16.27843a3.18078,3.18078,0,1,0,.93184,0Z" fill="#679ff5"/><path d="M83.8686,96.97489V80.41159A.46523.46523,0,0,0,83.403,79.946H74.25094a.46559.46559,0,0,0,0,.93118h8.68685V96.97489a3.18027,3.18027,0,1,0,.93081,0Z" fill="#679ff5"/><path d="M21.31232,96.97489V80.87714h8.68582a.46559.46559,0,0,0,0-.93118H20.84633a.46625.46625,0,0,0-.46592.46563v16.5633a3.18075,3.18075,0,1,0,.93191,0Z" fill="#679ff5"/><path d="M64.44471,106.2448v-5.70173a.46472.46472,0,0,0-.25314-.41416l-6.1077-3.129V86.57822a.46592.46592,0,0,0-.93183,0V97.28478a.46594.46594,0,0,0,.25416.41415l6.10777,3.129v5.41686a3.18023,3.18023,0,1,0,.93074,0Z" fill="#679ff5"/><path d="M64.30337,48.84514A24.91557,24.91557,0,1,0,41.73086,93.22539,24.91552,24.91552,0,1,0,64.30337,48.84514Z" fill="#eca841"/><path d="M77.04185,70.58108a24.9168,24.9168,0,1,1-24.9168-24.91636A24.91733,24.91733,0,0,1,77.04185,70.58108Z" fill="#f7d447"/><path d="M70.54063,70.58108a18.41631,18.41631,0,1,1-18.41558-18.4163A18.41572,18.41572,0,0,1,70.54063,70.58108Z" fill="#eca841"/><path d="M53.07583,53.07307a18.34459,18.34459,0,0,1,12.2265,4.64851A18.413,18.413,0,1,0,39.89782,84.34887a18.41261,18.41261,0,0,1,13.178-31.2758Z" fill="#f0a943"/><path d="M60.42846,74.964a4.42278,4.42278,0,0,0-3.50419-4.58212v-.12A4.52448,4.52448,0,0,0,59.46949,66.039c0-3.05692-2.09751-4.35436-5.06873-4.72851V57.6266H52.72807v3.57029c-.14814-.00351-.296-.00855-.44734-.00855h-2.511V57.6266h-1.672v3.56174H45.60424V80.71358h2.49352v2.822h1.672v-2.822h2.95835v2.822h1.67269v-2.907C57.86539,80.2323,60.42846,78.4443,60.42846,74.964ZM50.00677,64.6023h2.09649c2.065,0,3.05261.56836,3.05261,2.095,0,1.40952-.9265,2.30641-3.08441,2.30641H50.00677ZM52.491,77.29969H50.00677V72.26912H52.491c2.42633,0,3.62345.68769,3.62345,2.395C56.11447,76.46137,54.88847,77.29969,52.491,77.29969Z" fill="#fff"/><polygon points="179.457 38.589 153.397 54.726 179.458 101.202 205.522 54.725 179.457 38.589" fill="#6f86d3"/><polygon points="179.458 101.202 205.522 54.725 179.457 38.589 179.458 101.202" fill="#96b3f9"/><polygon points="179.457 70.862 153.397 54.725 179.458 38.589 205.522 54.726 179.457 70.862" fill="#6f86d3" style="mix-blend-mode:multiply"/><polygon points="179.457 63.756 153.397 47.619 179.458 3.127 205.522 47.619 179.457 63.756" fill="#6f86d3"/><polygon points="179.458 3.127 205.522 47.619 179.457 63.756 179.458 3.127" fill="#96b3f9"/><path d="M249.54016,288.70641c0-3.129-15.93213-5.666-35.58591-5.666-19.65239,0-35.58445,2.537-35.58445,5.666v9.76339c0,3.12828,15.93206,5.66532,35.58445,5.66532,19.65378,0,35.58591-2.537,35.58591-5.66532Z" fill="#eca841"/><path d="M213.95425,283.04036q-3.08473,0-6.02953.08285v20.92906q2.94117.0804,6.02953.08285c4.76,0,9.29849-.15,13.44716-.41986v-20.255C223.25274,283.19033,218.7142,283.04036,213.95425,283.04036Z" fill="#fbe88c" opacity="0.4" style="mix-blend-mode:screen"/><path d="M232.74258,283.89506v19.38536q1.8594-.18426,3.56028-.40348V284.29853Q234.60414,284.08005,232.74258,283.89506Z" fill="#fbe88c" opacity="0.4" style="mix-blend-mode:screen"/><path d="M249.54016,288.70641c0,3.12828-15.93213,5.66539-35.58591,5.66539-19.65239,0-35.58445-2.53711-35.58445-5.66539,0-3.129,15.93206-5.666,35.58445-5.666C233.608,283.04036,249.54016,285.5774,249.54016,288.70641Z" fill="#f7d447"/><path d="M240.1774,288.44654c0,2.16069-11.74062,3.91374-26.22315,3.91374-14.48115,0-26.22169-1.753-26.22169-3.91374,0-2.16222,11.74054-3.91519,26.22169-3.91519C228.43678,284.53135,240.1774,286.28432,240.1774,288.44654Z" fill="#f6c551"/><path d="M240.1774,288.44654c0-2.16222-11.74062-3.91519-26.22315-3.91519-13.95417,0-25.3591,1.628-26.17029,3.68092,3.87878-1.43812,13.30575-2.45346,24.32518-2.45346,14.48254,0,26.22308,1.753,26.22308,3.9152a.61621.61621,0,0,1-.0514.23274C239.50046,289.45545,240.1774,288.96277,240.1774,288.44654Z" fill="#f0a943"/><path d="M247.10235,276.77305c0-3.129-15.93213-5.666-35.58591-5.666-19.65232,0-35.58446,2.537-35.58446,5.666v9.76339c0,3.12828,15.93214,5.66531,35.58446,5.66531,19.65378,0,35.58591-2.537,35.58591-5.66531Z" fill="#eca841"/><path d="M211.51644,271.107q-3.08475,0-6.02953.08285v20.92906q2.94127.0804,6.02953.08284c4.75994,0,9.29849-.15,13.44715-.41985v-20.255C220.81493,271.257,216.27638,271.107,211.51644,271.107Z" fill="#fbe88c" opacity="0.4" style="mix-blend-mode:screen"/><path d="M230.30477,271.9617v19.38536q1.8594-.18426,3.56035-.40348V272.36517Q232.1663,272.1467,230.30477,271.9617Z" fill="#fbe88c" opacity="0.4" style="mix-blend-mode:screen"/><path d="M247.10235,276.77305c0,3.12828-15.93213,5.66539-35.58591,5.66539-19.65232,0-35.58446-2.53711-35.58446-5.66539,0-3.129,15.93214-5.666,35.58446-5.666C231.17022,271.107,247.10235,273.644,247.10235,276.77305Z" fill="#f7d447"/><path d="M237.73959,276.51311c0,2.16076-11.74062,3.91381-26.22315,3.91381-14.48115,0-26.22169-1.753-26.22169-3.91381,0-2.16215,11.74054-3.91512,26.22169-3.91512C225.999,272.598,237.73959,274.351,237.73959,276.51311Z" fill="#f6c551"/><path d="M237.73959,276.51311c0-2.16215-11.74062-3.91512-26.22315-3.91512-13.95418,0-25.3591,1.628-26.17029,3.68092,3.87878-1.43812,13.30582-2.45346,24.32518-2.45346,14.48254,0,26.22315,1.753,26.22315,3.91519a.6166.6166,0,0,1-.05147.23274C237.06265,277.52209,237.73959,277.02941,237.73959,276.51311Z" fill="#f0a943"/><path d="M249.33309,271.70819c0-3.129-15.93214-5.666-35.58592-5.666-19.65239,0-35.58445,2.537-35.58445,5.666v9.76339c0,3.12828,15.93206,5.66532,35.58445,5.66532,19.65378,0,35.58592-2.537,35.58592-5.66532Z" fill="#eca841"/><path d="M213.74717,266.04214q-3.08474,0-6.02952.08285v20.92906q2.94117.0804,6.02952.08285c4.75995,0,9.29849-.15,13.44716-.41986V266.462C223.04566,266.19211,218.50712,266.04214,213.74717,266.04214Z" fill="#fbe88c" opacity="0.4" style="mix-blend-mode:screen"/><path d="M232.53552,266.89691V286.2822q1.85939-.18426,3.56026-.40347V267.30031Q234.39706,267.08183,232.53552,266.89691Z" fill="#fbe88c" opacity="0.4" style="mix-blend-mode:screen"/><path d="M249.33309,271.70819c0,3.12836-15.93214,5.66539-35.58592,5.66539-19.65239,0-35.58445-2.537-35.58445-5.66539,0-3.129,15.93206-5.666,35.58445-5.666C233.401,266.04214,249.33309,268.57918,249.33309,271.70819Z" fill="#f7d447"/><path d="M239.97033,271.44832c0,2.16069-11.74062,3.91374-26.22316,3.91374-14.48114,0-26.22169-1.753-26.22169-3.91374,0-2.16222,11.74055-3.91519,26.22169-3.91519C228.22971,267.53313,239.97033,269.2861,239.97033,271.44832Z" fill="#f6c551"/><path d="M239.97033,271.44832c0-2.16222-11.74062-3.91519-26.22316-3.91519-13.95417,0-25.35916,1.628-26.17028,3.681,3.87878-1.43812,13.30574-2.45353,24.32518-2.45353,14.48253,0,26.22308,1.753,26.22308,3.9152a.61621.61621,0,0,1-.0514.23274C239.29338,272.45723,239.97033,271.96455,239.97033,271.44832Z" fill="#f0a943"/><path d="M311.56764,292.99364c0-3.129-15.93206-5.66605-35.58445-5.66605-19.65232,0-35.58446,2.537-35.58446,5.66605V302.757c0,3.12835,15.93214,5.66539,35.58446,5.66539,19.65239,0,35.58445-2.537,35.58445-5.66539Z" fill="#eca841"/><path d="M275.98319,287.32759q-3.08475,0-6.03092.08285V308.3395q2.94117.0804,6.03092.08285c4.76,0,9.2971-.15,13.44716-.41986v-20.255C285.28029,287.47756,280.74314,287.32759,275.98319,287.32759Z" fill="#fbe88c" opacity="0.4" style="mix-blend-mode:screen"/><path d="M294.77013,288.18229v19.38529c1.2396-.12277,2.42919-.25775,3.56028-.40341V288.58576C297.19932,288.44011,296.00973,288.30513,294.77013,288.18229Z" fill="#fbe88c" opacity="0.4" style="mix-blend-mode:screen"/><path d="M311.56764,292.99364c0,3.12828-15.93206,5.66539-35.58445,5.66539-19.65232,0-35.58446-2.53711-35.58446-5.66539,0-3.129,15.93214-5.66605,35.58446-5.66605C295.63558,287.32759,311.56764,289.86463,311.56764,292.99364Z" fill="#f7d447"/><path d="M302.205,292.7337c0,2.16076-11.73916,3.91381-26.22176,3.91381-14.48115,0-26.22169-1.75305-26.22169-3.91381,0-2.16215,11.74054-3.9152,26.22169-3.9152C290.46579,288.8185,302.205,290.57155,302.205,292.7337Z" fill="#f6c551"/><path d="M302.205,292.7337c0-2.16215-11.73916-3.9152-26.22176-3.9152-13.95417,0-25.3591,1.62809-26.17167,3.681,3.88016-1.43812,13.3072-2.45346,24.32656-2.45346,14.48254,0,26.22169,1.753,26.22169,3.9152a.64343.64343,0,0,1-.04994.23274C301.528,293.74268,302.205,293.25,302.205,292.7337Z" fill="#f0a943"/><path d="M311.30207,281.47158c0-3.129-15.93214-5.66605-35.58592-5.66605-19.65239,0-35.58445,2.537-35.58445,5.66605v9.76331c0,3.12836,15.93206,5.66539,35.58445,5.66539,19.65378,0,35.58592-2.537,35.58592-5.66539Z" fill="#eca841"/><path d="M275.71615,275.80553q-3.08474,0-6.02952.08284v20.92907q2.94117.08028,6.02952.08284c4.75995,0,9.29849-.15,13.44716-.41985V276.22538C285.01464,275.9555,280.4761,275.80553,275.71615,275.80553Z" fill="#fbe88c" opacity="0.4" style="mix-blend-mode:screen"/><path d="M294.5045,276.66023v19.38528q1.85939-.18414,3.56026-.4034V277.0637Q296.366,276.84523,294.5045,276.66023Z" fill="#fbe88c" opacity="0.4" style="mix-blend-mode:screen"/><path d="M311.30207,281.47158c0,3.12828-15.93214,5.66532-35.58592,5.66532-19.65239,0-35.58445-2.537-35.58445-5.66532,0-3.129,15.93206-5.66605,35.58445-5.66605C295.36993,275.80553,311.30207,278.34257,311.30207,281.47158Z" fill="#f7d447"/><path d="M301.93931,281.21164c0,2.16076-11.74062,3.91381-26.22316,3.91381-14.48113,0-26.22169-1.753-26.22169-3.91381,0-2.16215,11.74056-3.9152,26.22169-3.9152C290.19869,277.29644,301.93931,279.04949,301.93931,281.21164Z" fill="#f6c551"/><path d="M301.93931,281.21164c0-2.16215-11.74062-3.9152-26.22316-3.9152-13.95417,0-25.35916,1.62809-26.17028,3.681,3.87878-1.43812,13.30574-2.45354,24.32518-2.45354,14.48253,0,26.22308,1.753,26.22308,3.9152a.61638.61638,0,0,1-.05141.23281C301.26236,282.22062,301.93931,281.72794,301.93931,281.21164Z" fill="#f0a943"/><path d="M306.84059,270.9242c0-3.129-15.93212-5.666-35.58591-5.666-19.65232,0-35.58445,2.537-35.58445,5.666v9.76332c0,3.12835,15.93213,5.66539,35.58445,5.66539,19.65379,0,35.58591-2.537,35.58591-5.66539Z" fill="#eca841"/><path d="M271.25468,265.25815q-3.08474,0-6.02952.08278v20.92913q2.94126.0803,6.02952.08285c4.76,0,9.29849-.15,13.44723-.41986V265.678C280.55317,265.40805,276.01463,265.25815,271.25468,265.25815Z" fill="#fbe88c" opacity="0.4" style="mix-blend-mode:screen"/><path d="M290.043,266.11285v19.38529q1.8595-.18415,3.56034-.4034V266.51632Q291.90464,266.29785,290.043,266.11285Z" fill="#fbe88c" opacity="0.4" style="mix-blend-mode:screen"/><path d="M306.84059,270.9242c0,3.12828-15.93212,5.66532-35.58591,5.66532-19.65232,0-35.58445-2.537-35.58445-5.66532,0-3.129,15.93213-5.666,35.58445-5.666C290.90847,265.25815,306.84059,267.79519,306.84059,270.9242Z" fill="#f7d447"/><path d="M297.47783,270.66426c0,2.16076-11.74054,3.91381-26.22315,3.91381-14.48115,0-26.22169-1.75305-26.22169-3.91381,0-2.16215,11.74054-3.91519,26.22169-3.91519C285.73729,266.74907,297.47783,268.50211,297.47783,270.66426Z" fill="#f6c551"/><path d="M297.47783,270.66426c0-2.16215-11.74054-3.91519-26.22315-3.91519-13.95417,0-25.3591,1.62808-26.17029,3.681,3.87879-1.43812,13.30582-2.45353,24.32519-2.45353,14.48253,0,26.22316,1.753,26.22316,3.91519a.618.618,0,0,1-.05142.23282C296.80089,271.67324,297.47783,271.18056,297.47783,270.66426Z" fill="#f0a943"/><path d="M315.00947,258.99084c0-3.129-15.93214-5.666-35.58446-5.666-19.65239,0-35.58453,2.537-35.58453,5.666v9.76331c0,3.12829,15.93214,5.6654,35.58453,5.6654,19.65232,0,35.58446-2.53711,35.58446-5.6654Z" fill="#eca841"/><path d="M279.425,253.32479q-3.08475,0-6.031.08277V274.3367q2.94117.08028,6.031.08285c4.75987,0,9.297-.15,13.44715-.41993v-20.255C288.722,253.47469,284.18488,253.32479,279.425,253.32479Z" fill="#fbe88c" opacity="0.4" style="mix-blend-mode:screen"/><path d="M298.21188,254.17949v19.38529c1.2396-.12277,2.42926-.25775,3.56035-.40341V254.583C300.64114,254.43724,299.45148,254.30233,298.21188,254.17949Z" fill="#fbe88c" opacity="0.4" style="mix-blend-mode:screen"/><path d="M315.00947,258.99084c0,3.12828-15.93214,5.66532-35.58446,5.66532-19.65239,0-35.58453-2.537-35.58453-5.66532,0-3.129,15.93214-5.666,35.58453-5.666C299.07733,253.32479,315.00947,255.86183,315.00947,258.99084Z" fill="#f7d447"/><path d="M305.6467,258.7309c0,2.16076-11.73916,3.91373-26.22169,3.91373-14.48115,0-26.22177-1.753-26.22177-3.91373,0-2.16215,11.74062-3.9152,26.22177-3.9152C293.90754,254.8157,305.6467,256.56875,305.6467,258.7309Z" fill="#f6c551"/><path d="M305.6467,258.7309c0-2.16215-11.73916-3.9152-26.22169-3.9152-13.95417,0-25.35917,1.62809-26.17175,3.681,3.88017-1.43812,13.3072-2.45354,24.32657-2.45354,14.48261,0,26.22169,1.753,26.22169,3.9152a.64375.64375,0,0,1-.04994.23281C304.96975,259.73988,305.6467,259.2472,305.6467,258.7309Z" fill="#f0a943"/><path d="M305.27108,248.44346c0-3.129-15.93213-5.666-35.58592-5.666-19.65232,0-35.58445,2.537-35.58445,5.666v9.76332c0,3.12828,15.93213,5.66539,35.58445,5.66539,19.65379,0,35.58592-2.53711,35.58592-5.66539Z" fill="#eca841"/><path d="M269.68516,242.77742q-3.08474,0-6.02952.08277v20.92913q2.94127.0803,6.02952.08285c4.76,0,9.29849-.15,13.44724-.41993v-20.255C278.98365,242.92731,274.44511,242.77742,269.68516,242.77742Z" fill="#fbe88c" opacity="0.4" style="mix-blend-mode:screen"/><path d="M288.47358,243.63211V263.0174q1.85938-.18426,3.56027-.4034V244.03559Q290.33513,243.817,288.47358,243.63211Z" fill="#fbe88c" opacity="0.4" style="mix-blend-mode:screen"/><path d="M305.27108,248.44346c0,3.12829-15.93213,5.66532-35.58592,5.66532-19.65232,0-35.58445-2.537-35.58445-5.66532,0-3.129,15.93213-5.666,35.58445-5.666C289.339,242.77742,305.27108,245.31445,305.27108,248.44346Z" fill="#f7d447"/><path d="M295.90832,248.18352c0,2.16077-11.74055,3.91374-26.22316,3.91374-14.48106,0-26.22169-1.753-26.22169-3.91374,0-2.16215,11.74063-3.91519,26.22169-3.91519C284.16777,244.26833,295.90832,246.02137,295.90832,248.18352Z" fill="#f6c551"/><path d="M295.90832,248.18352c0-2.16215-11.74055-3.91519-26.22316-3.91519-13.95409,0-25.35908,1.62808-26.17028,3.681,3.87878-1.43812,13.30582-2.45353,24.32518-2.45353,14.48253,0,26.22315,1.753,26.22315,3.91519a.61819.61819,0,0,1-.0514.23282C295.23137,249.1925,295.90832,248.69982,295.90832,248.18352Z" fill="#f0a943"/><path d="M72.2683,246.95818A39.13753,39.13753,0,1,0,15.41843,300.672,39.13748,39.13748,0,1,0,72.2683,246.95818Z" fill="#eca841"/><path d="M79.62027,285.84377A39.1392,39.1392,0,1,1,55.93635,235.816,39.13827,39.13827,0,0,1,79.62027,285.84377Z" fill="#f7d447"/><path d="M70.00473,282.40839a28.92817,28.92817,0,1,1-17.50589-36.97687A28.92778,28.92778,0,0,1,70.00473,282.40839Z" fill="#eca841"/><path d="M53.42717,247.27669A28.80821,28.80821,0,0,1,69.05359,260.616a28.92277,28.92277,0,1,0-51.65222,25.95824,28.923,28.923,0,0,1,36.0258-39.29755Z" fill="#f0a943"/><path d="M55.46671,279.3174a6.57421,6.57421,0,0,0-5.14175-6.85975l.00182-.178c2.368-.86784,3.81858-3.65563,3.84516-6.23975.04253-4.54215-3.057-6.50109-7.46543-7.09969l.05314-5.47383-2.48672-.02476-.05131,5.30462c-.21965-.00617-.43928-.01678-.66427-.01859l-3.7318-.03628.05142-5.29228-2.485-.02385-.05133,5.29219-3.70533-.03627-.28157,29.016,3.70524.03637-.04072,4.19411,2.48491.02385.0408-4.19411,4.396.04253-.04071,4.19411,2.48672.02484.04071-4.32079C51.58075,287.10964,55.4153,284.48916,55.46671,279.3174Zm-15.33828-15.549,3.11543.03011c3.06945.03011,4.52892.88825,4.50588,3.157-.0195,2.09534-1.40986,3.41487-4.61561,3.38386l-3.06944-.03011Zm3.50863,18.90623-3.69281-.03627.07264-7.47522,3.69281.03546c3.60612.03545,5.37553,1.07333,5.35068,3.61047C49.03381,281.48083,47.19892,282.70914,43.63706,282.67459Z" fill="#fff"/><path d="M9.4916,208.05686A17.79442,17.79442,0,0,1,0,204.025l3.41021-5.344c2.7544,2.02412,5.13163,3.08626,7.71117,3.07051,3.014-.01932,4.35073-1.26769,4.33537-3.74192-.03455-5.53611-14.23462-5.34261-14.2951-15.02727a9.61307,9.61307,0,0,1,8.111-10.00322L9.238,167.438l5.22112-.03194.03413,5.43613a13.312,13.312,0,0,1,8.04354,4.36028l-3.95346,4.5454c-1.94715-1.76563-3.62176-2.66735-5.88236-2.65356-2.57976.01657-3.975,1.0464-3.95985,3.46946.03191,5.1064,14.23479,4.58806,14.299,14.86365.03214,5.165-2.7944,9.16388-8.32864,10.38175l.035,5.594-5.22125.03276Z" fill="#4a7a7e"/><path d="M117.79944,68.14416a15.1907,15.1907,0,0,1-8.10275-3.44189l2.91122-4.56206c2.35136,1.72794,4.38074,2.63466,6.58283,2.62121,2.573-.01648,3.71412-1.08219,3.701-3.19438-.0295-4.72605-12.15176-4.56086-12.20339-12.82842a8.20645,8.20645,0,0,1,6.92414-8.53951l-.02952-4.73032,4.45715-.02726.02913,4.64069a11.36415,11.36415,0,0,1,6.86658,3.72227l-3.375,3.8803a7.03145,7.03145,0,0,0-5.02163-2.26528c-2.20228.01414-3.39338.89329-3.38043,2.96179.02724,4.35921,12.1519,3.91672,12.20671,12.68875a8.48765,8.48765,0,0,1-7.11,8.86265l.02987,4.77548-4.45727.028Z" fill="#4a7a7e"/><path d="M310.80066,225.08917a14.55545,14.55545,0,0,1-7.72037-3.39864l2.84608-4.33464c2.23132,1.68483,4.16437,2.57885,6.27436,2.5934,2.46536.01626,3.572-.99057,3.58574-3.01442.03062-4.52841-11.58579-4.52117-11.53225-12.443a7.86326,7.86326,0,0,1,6.74042-8.09544l.03065-4.53249,4.27074.02941-.02991,4.44661a10.889,10.889,0,0,1,6.5325,3.65187l-3.28191,3.67566a6.73742,6.73742,0,0,0-4.783-2.23293c-2.11019-.01389-3.26233.81358-3.27569,2.79558-.02822,4.1769,11.59394,3.904,11.53716,12.30918a8.13271,8.13271,0,0,1-6.92248,8.40273l-.03088,4.57576-4.27086-.02874Z" fill="#4a7a7e"/><path d="M142.5191,23.74773a10.40351,10.40351,0,0,1-5.51814-2.42917l2.03423-3.0982A7.48748,7.48748,0,0,0,143.5198,20.074c1.76212.01163,2.55307-.708,2.5629-2.15456.02189-3.23668-8.28094-3.23151-8.24268-8.89362a5.62027,5.62027,0,0,1,4.81772-5.78622L142.67965,0l3.05252.021-.02138,3.17822a7.78286,7.78286,0,0,1,4.66911,2.61017L148.03415,8.4366a4.81556,4.81556,0,0,0-3.41866-1.596c-1.50825-.00993-2.33175.5815-2.3413,1.99814-.02016,2.98544,8.28678,2.79039,8.2462,8.798a5.81287,5.81287,0,0,1-4.94785,6.00585l-.02207,3.27053-3.0526-.02054Z" fill="#4a7a7e"/></g></g></g></svg>