<svg xmlns="http://www.w3.org/2000/svg" viewBox="0 0 172.19454 181.40991"><g id="Layer_2" data-name="Layer 2"><g id="Слой_3" data-name="Слой 3"><g opacity="0.67"><rect x="97.0209" y="95.84545" width="1.59683" height="34.48358" fill="#6790d2"/><rect x="95.59516" y="102.63827" width="4.4483" height="20.89794" fill="#b3483b"/><rect x="24.40971" y="27.9018" width="1.59683" height="42.41829" fill="#6790d2"/><rect x="22.98397" y="36.25766" width="4.4483" height="25.70658" fill="#71a19d"/><rect x="64.4152" y="13.23341" width="1.59683" height="42.41829" fill="#6790d2"/><rect x="62.98947" y="21.58926" width="4.4483" height="25.70658" fill="#71a19d"/><rect x="123.31367" y="111.31009" width="1.59683" height="42.41829" fill="#6790d2"/><rect x="121.88793" y="119.66595" width="4.4483" height="25.70658" fill="#71a19d"/><rect x="156.12121" y="66.54017" width="1.59683" height="61.58022" fill="#6790d2"/><rect x="154.69547" y="78.67068" width="4.4483" height="37.3192" fill="#71a19d"/><rect x="135.518" y="60.00148" width="1.59683" height="57.18261" fill="#6790d2"/><rect x="134.09226" y="71.26571" width="4.4483" height="34.65413" fill="#71a19d"/><rect x="85.37968" y="37.50177" width="1.59683" height="126.72982" fill="#6790d2"/><rect x="83.95394" y="46.52262" width="4.4483" height="92.74484" fill="#71a19d"/><rect x="36.90785" y="28.75693" width="1.59683" height="78.16867" fill="#6790d2"/><rect x="35.48211" y="44.15515" width="4.4483" height="47.37223" fill="#71a19d"/><rect x="7.08224" y="32.64366" width="1.59683" height="23.02299" fill="#6790d2"/><rect x="5.6565" y="37.17889" width="4.4483" height="13.95253" fill="#b3483b"/><rect x="169.17197" y="56.83106" width="1.59683" height="23.02299" fill="#6790d2"/><rect x="167.74623" y="61.3663" width="4.4483" height="13.95253" fill="#b3483b"/><rect x="14.50623" y="68.13228" width="1.59683" height="23.02299" fill="#6790d2"/><rect x="13.0805" y="72.66751" width="4.4483" height="13.95253" fill="#b3483b"/><rect x="50.00679" y="25.53377" width="1.59683" height="34.48358" fill="#6790d2"/><rect x="48.58105" y="32.32659" width="4.4483" height="20.89794" fill="#b3483b"/><rect x="147.2083" y="93.83978" width="1.59683" height="34.48358" fill="#6790d2"/><rect x="145.78256" y="100.6326" width="4.4483" height="20.89794" fill="#b3483b"/><rect x="108.48599" y="118.91316" width="1.59683" height="52.91875" fill="#6790d2"/><rect x="107.06025" y="129.33747" width="4.4483" height="32.07013" fill="#b3483b"/><rect x="74.3253" y="65.35509" width="1.59683" height="34.48358" fill="#6790d2"/><rect x="72.89956" y="72.14791" width="4.4483" height="20.89794" fill="#b3483b"/></g><polygon points="45.96 158.42 45.67 165.56 45.67 165.57 45.47 170.8 45.05 181.41 20.36 181.41 21.99 162.79 21.98 162.71 21.98 158.42 45.96 158.42" fill="#424242"/><path d="M45.95753,158.42091H22.99236c-.61918,2.46515-1.0139,4.28507-1.0139,4.28507s7.22849,6.84257,23.48847,8.09809Z" fill="#282828"/><polygon points="70.51 158.42 70.51 162.71 69.78 168.75 69.57 181.41 47.44 181.41 47.02 170.9 46.86 166.72 46.82 165.59 46.53 158.42 70.51 158.42" fill="#424242"/><path d="M69.78241,168.74859l.72749-6.04261v-4.28507h-23.979l.49462,12.48449A84.25309,84.25309,0,0,0,69.78241,168.74859Z" fill="#282828"/><path d="M55.09593,100.97724s21.02147,12.26728,32.78952,14.92249,20.71764-25.93126,20.71764-25.93126l-8.03468-4.09S94.21892,94.70487,89.074,100.4934c0,0-14.88395-12.20419-21.61847-15.5383Z" fill="#4a7a7e"/><path d="M61.80043,104.69514c6.58593,3.52484,16.69628,8.58094,24.15592,10.705C72.52364,108.351,67.09882,97.86433,67.09882,97.86433S64.12925,101.33038,61.80043,104.69514Z" fill="#366265"/><path d="M32.15176,83.69721S6.75415,100.28047.818,110.78283s22.381,32.33559,22.381,32.33559l1.74282-9.82926S19.286,122.95948,15.22707,116.3638c0,0,8.95-5.36349,13.49851-9.73156Z" fill="#4a7a7e"/><path d="M11.80082,132.97922c3.28745,3.30888,6.55148,6.15645,8.73911,7.984a2.66734,2.66734,0,0,0,1.08585-1.90441,38.28061,38.28061,0,0,0,0-5.92748A19.52947,19.52947,0,0,1,11.80082,132.97922Z" fill="#366265"/><path d="M15.2271,116.3638s8.95-5.36349,13.49848-9.73159l1.1473-7.68Z" fill="#366265"/><path d="M53.60456,83.33155s8.47292.71031,13.85094,1.62355l6.39275,74.85732s-16.64143,6.69716-29.42691,5.68244l-1.79525-6.03854-3.07541,6.14321s-13.19137-.51056-20.49736-3.96061L32.15176,83.69721l10.95044-.36566Z" fill="#4a7a7e"/><circle cx="46.78554" cy="109.0189" r="1.31367" fill="#71a19d"/><circle cx="46.78554" cy="117.38754" r="1.31367" fill="#71a19d"/><circle cx="46.78554" cy="125.75618" r="1.31367" fill="#71a19d"/><circle cx="46.78554" cy="134.12482" r="1.31367" fill="#71a19d"/><rect x="53.20888" y="141.41387" width="14.31413" height="2.3799" fill="#71a19d"/><rect x="25.70153" y="141.41387" width="14.31413" height="2.3799" fill="#71a19d"/><path d="M46.78554,105.59336l14.603-8.85253-1.31832-2.21191,2.94987-.08365L57.04239,83.66455l-.00464-.014c-2.02836-.20124-3.4332-.31906-3.4332-.31906H43.10221l-3.787.12648L34.10958,93.8041l2.62575.39157-1.71209,2.21889Z" fill="#366265"/><path d="M46.78554,105.59335l8.31039-22.12883-3.49836,3.42955-3.49836.69986s-2.96476.50284-2.97083.52584-3.31871-4.8226-3.31871-4.8226Z" fill="#caddfa"/><path d="M43.49788,76.33509v7.2557c0,2.68161,1.91972,4.00314,4.60133,4.00314h0c2.68162,0,5.10967-1.32153,5.10967-4.00314V75.34515a4.85549,4.85549,0,0,0-4.85549-4.85549h0a4.8555,4.8555,0,0,0-4.8555,4.85549Z" fill="#f7ded4"/><path d="M49.78011,71.02806l-5.75113.53273s-.20111.08361-.5311.22266v8.85907c8.56416-1.11622,9.711-5.82182,9.711-5.82182L50.748,71.02806Z" fill="#eeccc5"/><path d="M63.952,61.18464c-2.84746-1.38147-4.67768,2.53743-4.67768,2.53743a52.334,52.334,0,0,0-2.54949-8.37145,23.58025,23.58025,0,0,0-10.457-3.7011c-6.90986-.90319-9.86947,4.3081-10.16086,7.07733-.83049,7.8925,2.57992,18.47483,10.626,18.6862,1.59414.04188,7.49939-1.25309,11.958-8.88933C64.48682,70.3999,66.79952,62.56611,63.952,61.18464Z" fill="#f7ded4"/><path d="M102.399,86.81028a10.55367,10.55367,0,0,0,1.07914-2.97137c.15221-1.2684-1.14033-3.80879-.203-4.3633.90057-.53273,1.97871,2.08018,1.97871,2.08018s2.689-5.32729,4.16035-5.32729,3.69105,2.37191,3.894,4.35062-6.63773,8.40556-6.63773,8.40556Z" fill="#f7ded4"/><path d="M25.39642,135.67847c-.46828-.11416-1.955-.26691-1.955-.26691l.394-2.61076a3.08931,3.08931,0,0,0-2.20973.33052c-.79588.48289-3.02347,4.18188-3.10152,7.226s3.94543,4.37749,5.38929,4.07308c0,0,.59735.03626.84563-.98712a.86621.86621,0,0,0-.59535-1.06939s.799.09166.987-1.23744a.93661.93661,0,0,0-.73635-1.1305s.96848.03724,1.04986-.84464c.06632-.71876.1095-1.27887-.50151-1.47747a1.04978,1.04978,0,0,0,.94-1.01593C25.98069,135.71911,25.39642,135.67847,25.39642,135.67847Z" fill="#f7ded4"/><path d="M25.12166,141.26807a2.154,2.154,0,0,1-2.24349.40309c-1.3902-.48884.43249.5958,1.28564.70277.0299.00376.05689-.00389.08616-.00295C24.44739,142.35455,24.94326,142.208,25.12166,141.26807Z" fill="#eeccc5"/><path d="M25.46432,139.16132a4.11246,4.11246,0,0,0,.02224-.79779c-.00586.03943-.12988.838-.59182,1.04664a4.41075,4.41075,0,0,1-2.10577,0c-.17052-.12223-.10746.41248,1.62553.5958C24.4145,140.006,25.383,140.04321,25.46432,139.16132Z" fill="#eeccc5"/><path d="M24.96282,137.68385a1.04976,1.04976,0,0,0,.94-1.0159,1.2155,1.2155,0,0,0-.10205-.67739,1.17476,1.17476,0,0,1-.79913,1.09748,4.686,4.686,0,0,1-1.82246,0C23.18373,137.07278,22.8463,137.1797,24.96282,137.68385Z" fill="#eeccc5"/><polygon points="46.648 92.388 45.128 99.751 46.786 105.593 50.377 98.952 49.429 92.311 48.099 93.168 46.648 92.388" fill="#232c40"/><polygon points="43.493 82.13 48.099 87.594 45.138 91.658 41.81 83.297 43.493 82.13" fill="#fff"/><polygon points="48.099 87.594 53.209 81.682 55.096 83.465 51.322 91.658 48.099 87.594" fill="#fff"/><polygon points="39.361 83.367 36.223 93.168 40.481 93.168 37.565 95.933 46.786 105.593 41.81 83.297 39.361 83.367" fill="#71a19d"/><polygon points="57.042 83.665 60.777 93.168 56.751 93.168 59.228 95.491 46.786 105.593 55.096 83.465 57.042 83.665" fill="#71a19d"/><polygon points="47.867 88.12 45.777 91.294 48.08 92.533 50.422 91.023 47.867 88.12" fill="#232c40"/><path d="M36.3,65.03441s-5.26152-9.08143-.07752-14.88963c0,0-1.59085-6.06924,3.56474-7.766a3.38536,3.38536,0,0,0,.83965,3.002s1.77078-5.22084,7.12215-6.004c0,0-.39157,2.67568,1.24,3.32829s9.07122,1.30521,9.91961,6.19976c0,0,7.8287,3.09083,3.84909,11.98711a4.99627,4.99627,0,0,0-3.48338,2.83013s-5.09465-2.98745-4.50976-8.4217c0,0-9.05491,1.66414-14.97731-2.05571C39.78725,53.24466,35.98536,55.34931,36.3,65.03441Z" fill="#232c40"/><path d="M120.73045,60.5498l4.43,9.71a24.10238,24.10238,0,0,1-34.44-10.1399,17.81234,17.81234,0,1,0-8.75-.42993,35.03675,35.03675,0,0,0,1.29,3.3501,31.85771,31.85771,0,0,0,17.98,16.76977c.56.21021,1.12.40015,1.69.57007h.01c.67.22,1.34.41016,2.02.57007h.01c.17.05.36.09009.53.12988h.01a31.46018,31.46018,0,0,0,7.01.79h.37a31.88579,31.88579,0,0,0,12.93-2.90991c.91-.41992,1.81-.88013,2.67005-1.38013l3.44,7.55,10.99-19.88989Zm-33.35-4.18994a13.69495,13.69495,0,1,1,13.7-13.69995A13.693,13.693,0,0,1,87.38041,56.35986Z" fill="#5a80c0"/><path d="M87.38449,28.96782a13.69693,13.69693,0,1,0,13.69693,13.697A13.69653,13.69653,0,0,0,87.38449,28.96782Z" fill="#e7953d"/><path d="M148.27043,25.23c-.36-1.06006-.76-2.12012-1.22-3.15015a32.089,32.089,0,0,0-42.57-15.90991c-.91.40991-1.8.87012-2.67005,1.37012l-2.05-4.49024L98.3704,0l-1.68,3.0498-9.3,16.84009,22.18,4.68994-4.43-9.72a25.94019,25.94019,0,0,1,2.65-1.42993,24.17211,24.17211,0,0,1,31.99,11.96.78866.78866,0,0,1,.05.1399,17.78663,17.78663,0,1,0,8.44-.29981Zm-3.44,31.12988a13.75261,13.75261,0,0,1-3.42-.42993c-.44-.11011-.87-.25-1.29-.40014a13.53643,13.53643,0,0,1-4.97-3.17994,13.85657,13.85657,0,0,1-2.94-4.35986c-.09-.2-.17-.41016-.25-.62012-.15-.41992-.28-.84985-.4-1.29q-.09-.33-.15-.65991c-.04-.16992-.07-.3501-.1-.54-.03-.2-.06-.3999-.07995-.60009a5.992,5.992,0,0,1-.06-.60987c-.03-.33008-.04-.66992-.04-1.01s.01-.67993.04-1.01q.015-.29993.06-.6001a4.84724,4.84724,0,0,1,.07995-.5498c.02-.2002.06-.40015.1-.6001q.06-.33.15-.65991c.12006-.44019.25-.87012.4-1.29.08-.21.16-.40991.25-.62012a13.927,13.927,0,0,1,2.94-4.34985,13.69272,13.69272,0,1,1,9.68,23.37988Z" fill="#5a80c0"/><path d="M144.83022,28.96782a13.69693,13.69693,0,1,0,13.69015,13.697A13.69794,13.69794,0,0,0,144.83022,28.96782Z" fill="#e7953d"/><path d="M150.18046,44.57983a4.17659,4.17659,0,0,0-1.04-1.32983,7.16182,7.16182,0,0,0-1.6-1.01c-.62-.28-1.31-.56006-2.07-.83008a10.93891,10.93891,0,0,1-1.17-.49,3.13922,3.13922,0,0,1-.76-.51,1.50643,1.50643,0,0,1-.41-.59009,2.37188,2.37188,0,0,1-.13-.73,2.24774,2.24774,0,0,1,.11-.74,1.54726,1.54726,0,0,1,.35-.60986,1.70314,1.70314,0,0,1,.62-.40015,2.2309,2.2309,0,0,1,.9-.15991,1.97846,1.97846,0,0,1,1.55.61987,2.83679,2.83679,0,0,1,.6,1.93018l3.36005-.04a5.58953,5.58953,0,0,0-.34-1.93994,4.31468,4.31468,0,0,0-2.29-2.52,5.74376,5.74376,0,0,0-1.82-.51l-.03-2.34009-1.86.02.03,2.31006a6.64611,6.64611,0,0,0-1.88.48,4.82874,4.82874,0,0,0-1.44.92993,3.80486,3.80486,0,0,0-.91,1.33008,4.10882,4.10882,0,0,0-.31,1.66992,4.18111,4.18111,0,0,0,.39,1.82007,4.075,4.075,0,0,0,1.05,1.33008,6.58423,6.58423,0,0,0,1.6.98975,22.00784,22.00784,0,0,0,2.08.81,9.46611,9.46611,0,0,1,1.13.4502,3.58267,3.58267,0,0,1,.76.50977,1.797,1.797,0,0,1,.42.62011,2.196,2.196,0,0,1,.14.8,1.985,1.985,0,0,1-.13.74,1.64933,1.64933,0,0,1-.41.6001,2.00942,2.00942,0,0,1-.69.38989,3.01277,3.01277,0,0,1-.96.15991,3.658,3.658,0,0,1-.93-.11987,2.10458,2.10458,0,0,1-.83-.42017,2.0587,2.0587,0,0,1-.58-.80981,3.18544,3.18544,0,0,1-.23-1.28l-3.36.04a5.28943,5.28943,0,0,0,.44,2.22,4.45078,4.45078,0,0,0,1.14,1.53,4.90986,4.90986,0,0,0,1.61.90991,7.77835,7.77835,0,0,0,1.87.3999l.02,2.14014,1.85-.03-.02-2.1499a6.80336,6.80336,0,0,0,1.89-.4502,4.68606,4.68606,0,0,0,1.45-.8999,3.88408,3.88408,0,0,0,.92-1.32007,4.27086,4.27086,0,0,0,.31-1.71A4.20085,4.20085,0,0,0,150.18046,44.57983Z" fill="#fff"/><path d="M92.29045,42.23a2.66957,2.66957,0,0,0,1.49-2.87012c-.17-2.01-1.9-2.71-4.09-2.92993l.03-2.79-1.7-.02-.03,2.72c-.45-.02-.91-.01-1.36005,0l.03-2.74-1.7-.02-.04,2.79h-1.08l-2.35-.02-.02,1.81006s1.26-.01,1.24.02a.85341.85341,0,0,1,.96.76l-.03,3.12988v.07007l-.06,4.46a.6013.6013,0,0,1-.64.55h-.01c.02.02-1.24-.01-1.24-.01l-.36,2.02,2.21.03,1.21.04-.03,2.81982,1.7.02.04-2.81c.47.02.92.03027,1.36.04l-.04,2.78,1.71.02.04-2.80981c2.86-.13013,4.87-.83008,5.15-3.51025A2.89235,2.89235,0,0,0,92.29045,42.23Zm-5.65-3.89014c.96.01,4-.26,3.96,1.75-.02,1.91016-3.04,1.66016-4,1.64014Zm-.11,8.8501.05-3.74c1.15.01,4.77-.27,4.74,1.91992C91.30046,47.49,87.68046,47.2,86.53044,47.18994Z" fill="#fff"/></g></g></svg>