<svg xmlns="http://www.w3.org/2000/svg" viewBox="0 0 102.12067 118.36482"><g id="Layer_2" data-name="Layer 2"><g id="Слой_3" data-name="Слой 3"><path d="M79.04,22.44644q7.396-.00453,14.792-.0085a8.16108,8.16108,0,0,1,8.14015,7.03588,16.10943,16.10943,0,0,1,.14856,1.71741q-.0027,26.984-.00269,53.96809a8.57668,8.57668,0,0,1-1.94835,5.7644,7.87428,7.87428,0,0,1-6.24788,2.93584c-6.20186.01578-12.40378.0055-18.60568.00578-.57782,0-1.15568-.004-1.73344.002a3.95273,3.95273,0,0,0-3.28344,1.61336Q66.12765,101.00238,61.964,106.53c-2.42539,3.22644-4.86847,6.44039-7.23811,9.70744a6.6378,6.6378,0,0,1-2.7404,2.1274H49.90481c-1.87735-.86395-2.83907-2.61968-4.0014-4.16275q-6.76682-8.9835-13.48662-18.00241a5.08,5.08,0,0,0-2.84395-2.21449,6.30878,6.30878,0,0,0-1.48813-.11668c-6.62565-.005-13.25147-.03174-19.87689.0074A8.23814,8.23814,0,0,1,.35529,87.8943a9.57344,9.57344,0,0,1-.35413-2.49909Q.0034,58.12218.009,30.84915a8.18206,8.18206,0,0,1,5.90089-8.04981,7.90369,7.90369,0,0,1,2.26431-.36349q7.45375.0092,14.90753.00958c.39283.40121.21448.87212.1294,1.31034a23.528,23.528,0,0,0-.44461,4.812,30.53386,30.53386,0,0,0,1.37183,8.6246,27.26948,27.26948,0,0,0,7.16147,11.5558,25.32767,25.32767,0,0,1,7.74893,16.06c.22978,2.21836.04,4.4585.07863,6.68885.01872,2.46374.01464,4.92709.00635,7.39034-.009,2.688.94951,4.79716,3.49542,5.9897a1.111,1.111,0,0,1,.67245.59385c.03307,1.3454-.041,2.692.00844,4.03757.04567,1.24214.572,1.86639,1.5553,1.89633,1.03568.03153,1.6323-.62148,1.69072-1.88992.03894-.84562-.00743-1.69346.02114-2.53946.01653-.48957-.0502-1.01885.43159-1.36992a7.67637,7.67637,0,0,1,2.94457-.18989,25.39029,25.39029,0,0,1,5.11986.168c.5101.31656.451.84544.47015,1.33143.0376.95458-.04205,1.913.042,2.86519a1.56262,1.56262,0,0,0,1.68956,1.62331c.91749-.03665,1.462-.59357,1.52227-1.66231.07963-1.4118-.00427-2.82685.01525-4.24107.13548-.41865.51957-.54645.8589-.71433a5.78843,5.78843,0,0,0,3.3045-5.52663c.04547-2.57943-.00613-5.16.01742-7.73961.06768-3.03584-.21943-6.09.355-9.10178a23.85215,23.85215,0,0,1,6.89345-13.057,28.37751,28.37751,0,0,0,8.817-16.99435,28.99987,28.99987,0,0,0-.13095-8.49365C78.85125,23.39766,78.61926,22.89062,79.04,22.44644Z" fill="#539efb" opacity="0.15"/><path d="M38.8331,71.40847c-.0079-1.50043-.00438-3.001-.02567-4.50126A24.13223,24.13223,0,0,0,31.685,49.606a31.53046,31.53046,0,0,1-6.53032-8.98839,29.03076,29.03076,0,0,1-2.58681-10.17758,29.53256,29.53256,0,0,1,.50415-7.53418,2.76275,2.76275,0,0,0,.00967-.46044,49.59946,49.59946,0,0,1,1.84611-5.42588,29.06638,29.06638,0,0,1,4.11239-6.63276A28.50106,28.50106,0,0,1,48.36692.18211a27.87008,27.87008,0,0,1,15.69269,2.9877,28.06049,28.06049,0,0,1,11.932,11.4955,27.1726,27.1726,0,0,1,2.85919,7.36189,2.24479,2.24479,0,0,0,.18923.41924c.14,1.52469.38085,3.03841.546,4.56038a22.39636,22.39636,0,0,1-.15776,4.936,27.3215,27.3215,0,0,1-2.91994,9.62122A29.22814,29.22814,0,0,1,70.977,49.03474a23.68191,23.68191,0,0,0-7.47123,14.539c-.33462,2.61224-.078,5.22578-.21741,7.83465a1.94773,1.94773,0,0,1-1.51464.39821q-10.713.0135-21.42595,0A1.94783,1.94783,0,0,1,38.8331,71.40847Z" fill="#f7d447"/><path d="M6.20186,2.037A1.97417,1.97417,0,0,1,9.02219.22828a15.82578,15.82578,0,0,1,2.76765,2.05107c2.62732,2.05886,5.21033,4.17428,7.81,6.26837a2.01446,2.01446,0,0,1,.66412,2.44143,1.92573,1.92573,0,0,1-1.99605,1.25812,2.23336,2.23336,0,0,1-1.23389-.56584q-2.65739-2.11086-5.31852-4.217Q9.59809,5.78369,7.48565,4.0967C6.82011,3.56271,6.15352,3.02,6.20186,2.037Z" fill="#f7d447"/><path d="M95.91421,1.98806a2.149,2.149,0,0,1-.99767,1.87831c-1.24844,1.01909-2.511,2.02093-3.77107,3.02571q-2.654,2.11625-5.31354,4.22543a11.27882,11.27882,0,0,1-1.10442.82789,1.92068,1.92068,0,0,1-2.64895-.53449,2.05093,2.05093,0,0,1,.42715-2.85673c1.43838-1.1504,2.86291-2.31815,4.30158-3.4682Q89.549,2.89432,92.30507.72072c1.25169-.98617,2.20536-.952,3.14849.05166A1.4446,1.4446,0,0,1,95.91421,1.98806Z" fill="#f7d447"/><path d="M38.8331,71.40847q11.36289.01224,22.72578.02334c.57648.0005,1.153-.01521,1.72947-.02339.00753,2.83931.10409,5.68208-.00594,8.51683a5.86121,5.86121,0,0,1-3.95934,5.36835c-.14325.04912-.29928.05-.39553.18955a3.54448,3.54448,0,0,1-3.72341.28281l-8.28681,0a3.5455,3.5455,0,0,1-3.72368-.28267,6.17109,6.17109,0,0,1-3.90291-3.57585,5.43887,5.43887,0,0,1-.47624-1.981C38.81227,77.08713,38.82553,74.2478,38.8331,71.40847Z" fill="#cbdefb"/><path d="M95.92276,69.39522a1.98,1.98,0,0,1-2.856,1.79754,18.24224,18.24224,0,0,1-2.84553-2.1386c-2.26623-1.77084-4.503-3.57944-6.74434-5.38193a13.03087,13.03087,0,0,1-1.19875-1.08,1.9383,1.9383,0,0,1-.17795-2.60644,1.9122,1.9122,0,0,1,2.4607-.58442,4.634,4.634,0,0,1,.868.555q4.54557,3.61563,9.07579,7.25052C95.21627,67.78039,96.00048,68.34356,95.92276,69.39522Z" fill="#f7d447"/><path d="M6.19757,69.389a2.1113,2.1113,0,0,1,.99121-1.80928q2.46484-1.98543,4.93966-3.95846,2.11214-1.68837,4.229-3.37074c.3003-.23867.59694-.48576.91812-.69363a2.01594,2.01594,0,0,1,2.50062,3.15124,20.88129,20.88129,0,0,1-2.1235,1.76251q-3.91126,3.12264-7.83092,6.23476c-1.24378.98546-2.2437.96507-3.14683-.03308A1.45682,1.45682,0,0,1,6.19757,69.389Z" fill="#f7d447"/><path d="M11.29,34.67863c-1.03877.00058-2.07841.02675-3.11607-.00734a2.109,2.109,0,0,1-1.93079-1.39973A2.15291,2.15291,0,0,1,7.014,31.00471a2.71966,2.71966,0,0,1,1.63612-.44311c1.7694-.026,3.54046-.04554,5.30876.00566A2.18953,2.18953,0,0,1,16.148,31.764a2.00956,2.00956,0,0,1-1.74225,2.90372C13.36981,34.72159,12.32878,34.67806,11.29,34.67863Z" fill="#f7d447"/><path d="M90.78766,34.681c-.9618,0-1.924.01659-2.8853-.00429a2.12487,2.12487,0,0,1-2.14985-1.83937A1.98788,1.98788,0,0,1,87.41567,30.684a3.546,3.546,0,0,1,1.0205-.13352c1.57735.00291,3.15471.00514,4.732-.00149a4.39157,4.39157,0,0,1,1.13539.14407,1.93745,1.93745,0,0,1,1.61411,2.16183,1.97272,1.97272,0,0,1-1.899,1.81126c-1.07479.0508-2.15386.01129-3.23106.01129Z" fill="#f7d447"/><path d="M43.19364,85.4833a14.16094,14.16094,0,0,0,3.72368.28267c-.00218,1.3404.00961,2.681-.01057,4.02115a1.97253,1.97253,0,1,1-3.94426-.02422c-.01683-1.187-.00491-2.37441-.00316-3.56163C42.95972,85.93826,42.90994,85.65538,43.19364,85.4833Z" fill="#424242"/><path d="M55.20413,85.766a14.15383,14.15383,0,0,0,3.72341-.28281c.06923.08744.19781.17417.19886.26242.01764,1.49211.07735,2.98724.00434,4.47565a1.79029,1.79029,0,0,1-2.0474,1.56336,1.77046,1.77046,0,0,1-1.85955-1.76789C55.181,88.60088,55.20743,87.183,55.20413,85.766Z" fill="#424242"/><path d="M44.83425,10.23608a1.66887,1.66887,0,0,1-1.01358,1.73534,20.2725,20.2725,0,0,0-5.07487,3.51286,13.61275,13.61275,0,0,0-2.3294,2.97084,14.84121,14.84121,0,0,0-1.7661,4.33458,2.01649,2.01649,0,0,1-1.765,1.70051,2.15978,2.15978,0,0,1-1.9997-1.1343,1.89129,1.89129,0,0,1-.13279-1.56711,17.74988,17.74988,0,0,1,4.12038-8.072,22.74274,22.74274,0,0,1,6.68054-5.13991,2.09957,2.09957,0,0,1,1.9531-.28333A1.95038,1.95038,0,0,1,44.83425,10.23608Z" fill="#f4e8b4"/><path d="M45.048,60.22034c-.00016-1.0385-.00559-2.077.00137-3.11549a2.13245,2.13245,0,0,1,1.88738-2.06409,2.08415,2.08415,0,0,1,2.02733,1.82976c.04893,2.22979.05522,4.46239-.00138,6.69182-.02845,1.12048-.95515,1.70787-2.32937,1.632a1.70938,1.70938,0,0,1-1.58238-1.74318C45.0388,62.37438,45.04813,61.29731,45.048,60.22034Z" fill="#eca841"/><path d="M57.07345,60.31115c-.00005,1.0385.00824,2.07709-.00247,3.11547a1.71089,1.71089,0,0,1-1.55807,1.76777c-1.36906.08509-2.32177-.49895-2.35253-1.60723-.0619-2.22914-.04924-4.46181-.0046-6.69177a2.0909,2.0909,0,0,1,2.0044-1.857,2.12952,2.12952,0,0,1,1.91148,2.04191C57.07986,58.15718,57.07349,59.23419,57.07345,60.31115Z" fill="#eca841"/><path d="M45.04787,45.84761c0-.34546-.00437-.691.00081-1.03639a1.96231,1.96231,0,0,1,3.921-.164,21.93763,21.93763,0,0,1,.00258,2.41725,2.119,2.119,0,0,1-2.03655,1.9435,1.87052,1.87052,0,0,1-1.88682-2.00881C45.04218,46.61541,45.04787,46.23146,45.04787,45.84761Z" fill="#eca841"/><path d="M57.07333,45.94833c.00034.30708.0026.61418-.00005.92123a1.92815,1.92815,0,0,1-1.98818,2.15038,2.29916,2.29916,0,0,1-1.9612-2.1732c.08805-.67953-.00541-1.38059.02243-2.0704a2.10084,2.10084,0,0,1,1.76275-1.96658,2.58279,2.58279,0,0,1,2.0748,1.19826,1.45989,1.45989,0,0,1,.08537.55855C57.08069,45.0269,57.073,45.48771,57.07333,45.94833Z" fill="#eca841"/></g></g></svg>