<svg xmlns="http://www.w3.org/2000/svg" viewBox="0 0 19.98386 16.30698"><g id="Layer_2" data-name="Layer 2"><g id="Слой_2" data-name="Слой 2"><path d="M19.98386,1.99831a6.861,6.861,0,0,1-1.63836,1.775.78518.78518,0,0,0-.34584.722A11.90209,11.90209,0,0,1,15.96178,11.215a11.11456,11.11456,0,0,1-4.54456,3.97726,11.29782,11.29782,0,0,1-3.44233,1.00352,12.46012,12.46012,0,0,1-2.61936.07332A11.53007,11.53007,0,0,1,1.29305,15.1887,10.11685,10.11685,0,0,1,0,14.467,8.3941,8.3941,0,0,0,6.046,12.7723c-.20811-.02587-.37356-.03873-.53611-.06784A4.0971,4.0971,0,0,1,2.29519,10.1067c-.08381-.19778-.06137-.21137.16371-.18172a4.112,4.112,0,0,0,1.58674-.10047,4.15541,4.15541,0,0,1-2.3709-1.47972A4.00632,4.00632,0,0,1,.78657,5.7447a4.15619,4.15619,0,0,0,1.8316.48821,4.39819,4.39819,0,0,1-.97685-.9378A4.08491,4.08491,0,0,1,.83011,3.14643a4.15378,4.15378,0,0,1,.461-2.25c.06276-.12312.09878-.142.19474-.02714a11.58165,11.58165,0,0,0,4.6102,3.3562A11.11357,11.11357,0,0,0,9.026,4.97358c.22034.025.44138.04373.66172.06863.11547.013.17279.01418.14665-.14772a4.0341,4.0341,0,0,1,.83628-3.35031A3.9797,3.9797,0,0,1,14.5349.05364,3.91961,3.91961,0,0,1,16.77985,1.2004a.22626.22626,0,0,0,.24274.062A8.437,8.437,0,0,0,19.27015.42155.321.321,0,0,1,19.47044.3509a4.23884,4.23884,0,0,1-1.67466,2.17858,5.14478,5.14478,0,0,0,1.221-.23583c.31834-.09455.63027-.21067.945-.31722Z" fill="#fff"/></g></g></svg>